# xmcd
#
# Track frame offsets: 
#        150
#        17927
#        43580
#        67105
#        67744
#        84913
#        101239
#        103706
#        121312
#        138034
#        144897
#        163451
#        165849
#        184075
#        199823
#        204252
#        230541
#        246970
#        253433
#
# Disc length: 3648 seconds
#
# Revision: 0
# Processed by: cddbd v1.5.2PL0 Copyright (c) Steve Scherf et al.
# Submitted via: ExactAudioCopyFreeDBPlugin 1.0
#
DISCID=0b0e3e13
DTITLE=Tinashe - Aquarius
DYEAR=2014
DGENRE=R&B
TTITLE0=Aquarius
TTITLE1=Bet Feat. Devonte Hynes
TTITLE2=Cold Sweat
TTITLE3=Nightfall (Interlude)
TTITLE4=2 On Feat. Schoolboy Q
TTITLE5=How Many Times Feat. Future
TTITLE6=What Is There To Lose (Interlude)
TTITLE7=Pretend Feat. A$AP Rocky
TTITLE8=All Hands On Deck
TTITLE9=Indigo Child (Interlude)
TTITLE10=Far Side Of The Moon
TTITLE11=The Calm (Interlude)
TTITLE12=Feels Like Vegas
TTITLE13=Thug Cry
TTITLE14=Deep In The Night (Interlude)
TTITLE15=Bated Breath
TTITLE16=Wildfire
TTITLE17=The Storm (Outro)
TTITLE18=Watch Me Work
EXTD=
EXTT0=
EXTT1=
EXTT2=
EXTT3=
EXTT4=
EXTT5=
EXTT6=
EXTT7=
EXTT8=
EXTT9=
EXTT10=
EXTT11=
EXTT12=
EXTT13=
EXTT14=
EXTT15=
EXTT16=
EXTT17=
EXTT18=
PLAYORDER=
